<?xml version="1.0" encoding="UTF-8"?>
<svg id="_图层_1" data-name="图层 1" xmlns="http://www.w3.org/2000/svg" viewBox="40.3 98 100.7 42.4">
  <defs>
    <style>
      .cls-1 {
        fill: #4b99a2;
      }

      .cls-1, .cls-2 {
        stroke-width: 0px;
      }

      .cls-2 {
        fill: #231815;
      }
    </style>
  </defs>
  <path class="cls-1" d="M90.38,96.26l2.79-4.88c.79-1.4.78-2.83-.01-4.11l-2.77-4.62-2.77,4.61c-.8,1.29-.81,2.71-.02,4.12l2.78,4.87ZM89.14,88.2l1.24-2.06,1.24,2.07c.45.73.45,1.46-.02,2.29l-1.23,2.15-1.23-2.14c-.47-.83-.47-1.56-.01-2.31Z"/>
  <path class="cls-1" d="M94.06,75.71c1.04-1.86,1.04-3.74-.02-5.44l-3.66-6.1-3.65,6.08c-1.06,1.71-1.07,3.6-.02,5.46l3.67,6.42,3.68-6.43ZM88.64,71.42l1.74-2.9,1.75,2.91c.63,1.02.62,2.02-.02,3.17l-1.73,3.02-1.72-3.01c-.65-1.15-.65-2.16-.02-3.19Z"/>
  <path class="cls-1" d="M90.38,63.62l5.72-10.01c1.7-3.02,1.69-5.96-.02-8.71l-5.71-9.5-5.7,9.49c-1.71,2.76-1.72,5.7-.02,8.73l5.72,10ZM86.6,46.06l3.79-6.3,3.79,6.32c1.27,2.05,1.26,4.15-.02,6.44l-3.77,6.6-3.77-6.59c-1.29-2.29-1.29-4.4-.02-6.46Z"/>
  <path class="cls-1" d="M74.63,85.05l-7.25,2,5.16,5.45c1.09,1.18,2.42,1.78,3.97,1.78h0c.51,0,1.05-.07,1.61-.21l7.58-1.92-5.51-5.57c-1.61-1.6-3.57-2.12-5.57-1.53ZM77.58,91.9c-.38.09-.74.14-1.07.14h0c-.91,0-1.66-.35-2.33-1.07l-2.61-2.75,3.67-1.01c1.27-.37,2.35-.06,3.37.96l2.75,2.78-3.78.96Z"/>
  <path class="cls-1" d="M54.1,96.31h0c.54,0,1.11-.06,1.66-.16l10.63-1.9-6.67-8.48c-1.91-2.5-4.55-3.55-7.93-3.04l-11.09,1.74,7.13,8.68c1.75,2.1,3.86,3.16,6.27,3.16ZM52.13,84.94c2.5-.37,4.4.33,5.82,2.2l4.37,5.56-6.98,1.25c-.43.08-.85.12-1.25.12-1.73,0-3.22-.77-4.54-2.35l-4.64-5.65,7.21-1.13Z"/>
  <path class="cls-1" d="M104.91,94.28c1.54,0,2.88-.6,3.96-1.77l5.17-5.46-7.23-2c-2.05-.6-3.98-.07-5.59,1.53l-5.5,5.56,7.59,1.92c.55.14,1.09.2,1.6.2ZM102.8,88.17c1.04-1.03,2.07-1.35,3.39-.96l3.65,1.01-2.62,2.76c-.9.97-2.01,1.26-3.38.92l-3.79-.96,2.74-2.77Z"/>
  <path class="cls-1" d="M121.7,85.75l-6.67,8.49,10.62,1.9c.57.11,1.13.17,1.68.17,2.41,0,4.51-1.06,6.27-3.17l7.12-8.67-11.1-1.74c-3.33-.49-6.02.54-7.91,3.03ZM131.86,91.71c-1.63,1.95-3.44,2.69-5.81,2.23l-6.96-1.25,4.38-5.57c1.41-1.85,3.36-2.55,5.81-2.19l7.22,1.13-4.63,5.64Z"/>
  <path class="cls-1" d="M62.89,84.16h0c.31,0,.62-.02.93-.05l10.76-.95-5.89-9.04c-1.57-2.49-3.91-3.75-6.95-3.75-.22,0-.44,0-.68.02l-11.2.75,6.33,9.28c1.72,2.48,3.98,3.74,6.7,3.74ZM61.19,72.62c2.51-.14,4.35.73,5.61,2.71l3.86,5.92-7.06.62c-.24.02-.48.04-.71.04h0c-1.98,0-3.57-.91-4.86-2.77l-4.12-6.04,7.28-.49Z"/>
  <path class="cls-1" d="M75.12,66.11l9.2,5.66.67-10.76c.24-3.16-1.06-5.7-3.89-7.55l-9.43-6.08-.46,11.22c-.11,3.37,1.21,5.9,3.92,7.52ZM73.74,51.38l6.13,3.96c2.12,1.39,3.06,3.19,2.88,5.52l-.44,7.06-6.03-3.71c-1.99-1.19-2.92-3-2.84-5.52l.3-7.3Z"/>
  <path class="cls-1" d="M60.65,67.26l10.83,2.95-2.95-10.84c-.91-3.25-2.94-5.26-6-5.98l-10.48-2.62,2.61,10.46c.72,3.08,2.74,5.11,5.99,6.02ZM62,55.56c2.26.53,3.69,1.97,4.37,4.4l1.92,7.05-7.04-1.92c-2.44-.68-3.88-2.12-4.41-4.39l-1.71-6.86,6.87,1.72Z"/>
  <path class="cls-1" d="M80.39,72.76l-8.21-1.68,2.37,8.02c.65,2.3,2.29,3.83,4.78,4.41l8.49,1.93-2.65-8.31c-.79-2.41-2.45-3.93-4.78-4.37ZM79.83,81.32c-1.7-.4-2.69-1.3-3.13-2.85l-1.32-4.45,4.57.93c1.56.3,2.55,1.21,3.09,2.86l1.46,4.57-4.67-1.06Z"/>
  <path class="cls-1" d="M112.21,74.11l-5.9,9.05,10.74.95c.32.03.64.05.94.05,2.73,0,4.98-1.26,6.71-3.75l6.33-9.27-11.21-.75c-3.36-.2-5.94,1.06-7.61,3.72ZM122.86,79.14c-1.3,1.87-2.89,2.78-4.86,2.78-.23,0-.47-.01-.73-.04l-7.04-.62,3.87-5.94c1.15-1.82,2.81-2.71,5.06-2.71.18,0,.36,0,.53.02l7.29.49-4.11,6.03Z"/>
  <path class="cls-1" d="M95.9,60.99l.67,10.78,9.18-5.65c2.72-1.62,4.04-4.15,3.93-7.53l-.46-11.21-9.44,6.09c-2.82,1.85-4.13,4.39-3.89,7.53ZM101.01,55.34l6.14-3.96.3,7.29c.08,2.53-.84,4.34-2.85,5.53l-6.02,3.71-.44-7.07c-.18-2.31.76-4.11,2.87-5.5Z"/>
  <path class="cls-1" d="M120.24,67.25c3.25-.91,5.26-2.94,5.98-6l2.62-10.48-10.46,2.61c-3.08.72-5.11,2.74-6.02,5.99l-2.95,10.83,10.84-2.95ZM114.52,59.97c.68-2.44,2.12-3.88,4.39-4.41l6.86-1.71-1.72,6.87c-.53,2.26-1.97,3.69-4.4,4.37l-7.05,1.92,1.92-7.04Z"/>
  <path class="cls-1" d="M106.33,79.11l2.37-8.03-8.19,1.68c-2.35.45-4.01,1.96-4.8,4.38l-2.65,8.3,8.5-1.93c2.47-.58,4.12-2.11,4.76-4.39ZM96.39,82.38l1.45-4.56c.54-1.66,1.53-2.57,3.1-2.87l4.55-.93-1.32,4.47c-.43,1.53-1.42,2.43-3.11,2.83l-4.67,1.06Z"/>
  <path class="cls-1" d="M56.09,110.65c1.15-.43,2.02-1.1,2.61-2.01.59-.91.89-2.01.89-3.29,0-2.23-.83-3.93-2.5-5.1-1.67-1.17-4.1-1.76-7.29-1.76h-8.92v24.84h10.08c3.02-.02,5.31-.65,6.85-1.87,1.54-1.22,2.31-3.05,2.31-5.48,0-1.34-.35-2.48-1.04-3.41-.69-.93-1.69-1.57-2.99-1.91ZM46.86,103.09h2.93c1.34,0,2.31.23,2.92.69.6.46.9,1.22.9,2.27,0,.91-.28,1.6-.84,2.07-.56.47-1.49.71-2.8.72h-3.12v-5.75ZM53.28,117.98c-.58.49-1.41.74-2.49.74h-3.92v-5.95h4.2c2.06.01,3.09,1.05,3.09,3.12,0,.9-.29,1.59-.87,2.09Z"/>
  <path class="cls-1" d="M81.53,110.28c.7-1.14,1.05-2.57,1.05-4.29,0-2.39-.83-4.23-2.49-5.54-1.66-1.31-3.96-1.96-6.91-1.96h-9.77v24.84h5.99v-8.79h3.24l4.38,8.79h6.41v-.26l-5.19-10.03c1.49-.7,2.58-1.62,3.28-2.76ZM75.75,109.04c-.57.6-1.43.9-2.57.9h-3.79v-6.84h3.79c1.13,0,1.98.31,2.56.92.58.61.87,1.45.87,2.52s-.29,1.91-.86,2.51Z"/>
  <g>
    <g>
      <path class="cls-2" d="M80.8,128.21h-1.15v2.29h-2.18v1.15h2.18v6.47c0,.47-.16.71-.49.71-.38,0-.77-.04-1.19-.09l.25,1.14h1.34c.82,0,1.24-.49,1.24-1.46v-6.77h.84v-1.15h-.84v-2.29Z"/>
      <path class="cls-2" d="M74.33,134.53c-.53-.81-1.05-1.53-1.57-2.19v-.73h1.11v-1.13h-1.11v-2.28h-1.16v2.28h-1.42v1.13h1.38c-.35,1.48-.94,2.8-1.73,3.96l.52,1.34c.49-.9.91-1.89,1.25-2.96v5.94h1.16v-6.3c.27.52.57,1.15.91,1.91l.66-.96Z"/>
      <path class="cls-2" d="M79.33,135.46c-.35-.86-.75-1.66-1.2-2.38l-.94.4c.43.72.81,1.54,1.16,2.47l.97-.49Z"/>
    </g>
    <g>
      <path class="cls-2" d="M46.99,134.69c-.03,1.8-.48,3.28-1.38,4.44l.95.89c.86-1.11,1.39-2.52,1.57-4.2h3.05v2.25c0,.4-.16.61-.48.61-.48,0-1-.03-1.56-.05l.33,1.18h1.62c.87,0,1.32-.44,1.32-1.3v-9.92h-5.42v6.11ZM48.21,129.73h2.97v1.92h-2.97v-1.92ZM48.21,132.78h2.97v1.91h-2.97v-1.91Z"/>
      <path class="cls-2" d="M45.82,128.85h-4.01v9.93h1.2v-.95h2.81v-8.99ZM44.65,136.66h-1.65v-2.82h1.65v2.82ZM44.65,132.67h-1.65v-2.64h1.65v2.64Z"/>
      <path class="cls-2" d="M76.49,134.81c.43-1.38.66-2.9.67-4.54v-.86h-3.04v1.15h2c-.05,1.06-.18,2.08-.39,3.01-.39-.62-.81-1.24-1.24-1.85l-.75.73c.57.86,1.09,1.7,1.57,2.51-.47,1.3-1.14,2.44-2.02,3.4l.66,1.01c.84-.96,1.52-2.04,2.04-3.22.42.77.78,1.53,1.11,2.29l.89-.9c-.46-.91-.95-1.84-1.49-2.75Z"/>
      <path class="cls-2" d="M103.18,137.83c.58-.58.99-1.25,1.22-2.01v-.97h-2.58c.08-.2.14-.39.22-.6l-1.13-.14c-.08.23-.16.48-.27.73h-1.78v1.02h1.33c-.24.48-.52.97-.82,1.51.58.23,1.14.44,1.66.66-.68.35-1.51.63-2.46.86l.56.99c1.25-.33,2.3-.76,3.14-1.3.7.32,1.29.62,1.78.92l.65-.94c-.48-.25-.99-.51-1.51-.73ZM102.08,137.37c-.42-.18-.85-.33-1.29-.48.2-.33.39-.67.57-1.03h1.96c-.28.56-.68,1.06-1.24,1.51Z"/>
      <path class="cls-2" d="M104.57,131.62v-1.05h-2.2v-2.33h-1.1v2.33h-2.39v1.05h1.59c-.38.58-1,1.13-1.89,1.63l.59.97c.97-.68,1.67-1.48,2.09-2.39v2.14h1.1v-1.42c.39.25.86.61,1.42,1.05l.63-.95c-.7-.37-1.38-.7-2.05-.97v-.06h2.2Z"/>
      <path class="cls-2" d="M108.09,136.5c.68-1.46,1.06-3.21,1.14-5.28h.73v-1.15h-3.21c.1-.52.18-1.06.25-1.65l-1.18-.2c-.25,2.35-.73,4.23-1.44,5.62l.76.94c.23-.38.43-.81.63-1.27.32,1.1.7,2.09,1.13,2.96-.56,1-1.3,1.81-2.24,2.44l.62,1c.89-.63,1.63-1.42,2.23-2.34.61.97,1.32,1.76,2.14,2.35l.67-.97c-.86-.58-1.59-1.41-2.23-2.46ZM107.44,135.24c-.44-.99-.81-2.14-1.09-3.46.05-.18.1-.37.15-.57h1.63c-.05,1.52-.28,2.86-.7,4.02Z"/>
      <path class="cls-2" d="M103.66,128.41c-.23.51-.54,1.03-.95,1.56l.84.43c.39-.52.71-1.05.96-1.58l-.85-.4Z"/>
      <path class="cls-2" d="M100.03,128.42l-.95.32c.29.47.57,1.01.82,1.62l.86-.39c-.22-.56-.46-1.06-.73-1.54Z"/>
      <path class="cls-2" d="M136.14,131.94h2.3v-3.28h-6.85v4.13c-.01,2.57-.44,4.67-1.29,6.3l.94.84c.81-1.62,1.29-3.49,1.46-5.62h2.28v1.3h-2.03v4.3h1.11v-.54h3v.54h1.11v-4.3h-2.04v-1.3h2.61v-1.1h-2.61v-1.27ZM132.74,133.21c0-.14.01-.28.01-.42v-.85h2.21v1.27h-2.23ZM137.06,136.67v1.63h-3v-1.63h3ZM132.76,130.86v-1.1h4.52v1.1h-4.52Z"/>
      <path class="cls-2" d="M131.02,133.35c-.35.19-.72.37-1.08.53v-2.16h1.11v-1.15h-1.11v-2.29h-1.16v2.29h-1.42v1.15h1.42v2.62c-.54.19-1.09.35-1.65.48l.3,1.19c.44-.15.89-.3,1.34-.47v2.72c0,.33-.15.49-.43.49-.3,0-.61-.04-.92-.09l.25,1.14h1.08c.78,0,1.19-.42,1.19-1.25v-3.51c.35-.16.71-.34,1.08-.52v-1.18Z"/>
      <path class="cls-2" d="M103.07,123.4h4.45v-15.99h-2.09v5.68c-.82-.3-1.59-.45-2.29-.45-1.51,0-2.75.5-3.73,1.5-.97,1-1.46,2.27-1.46,3.82,0,1.66.46,2.98,1.39,3.96.93.98,2.17,1.48,3.73,1.48ZM100.98,115.46c.61-.68,1.44-1.02,2.48-1.02.66,0,1.32.16,1.97.49v6.67h-1.61c-.93,0-1.58-.06-1.93-.18-.36-.12-.7-.36-1.02-.71-.53-.59-.8-1.42-.8-2.51,0-1.15.31-2.07.92-2.75Z"/>
      <path class="cls-2" d="M117.91,121.54v-4.48c0-.89-.03-1.49-.07-1.8-.05-.32-.17-.63-.35-.95-.18-.32-.39-.57-.62-.76-.69-.6-1.6-.89-2.74-.89-1.52,0-2.68.48-3.49,1.43v2.28c1.08-1.18,2.18-1.76,3.32-1.76,1.27,0,1.9.63,1.9,1.9v.56l-2.67.92c-.88.31-1.55.72-2.03,1.24-.48.52-.72,1.12-.72,1.78,0,.73.24,1.34.73,1.83.49.48,1.1.73,1.83.73,1,0,1.94-.34,2.83-1.03.16.7.69,1.05,1.58,1.05.31,0,.61-.06.9-.17.29-.11.67-.32,1.14-.62v-1.27c-.53.37-.93.56-1.18.56s-.37-.18-.37-.54ZM115.86,121.31c-.56.54-1.18.81-1.84.81-.44,0-.8-.14-1.08-.41s-.42-.63-.42-1.06.15-.78.44-1.07c.29-.29.8-.57,1.51-.85l1.4-.54v3.12Z"/>
      <path class="cls-2" d="M128.54,120.96c-.83.5-1.62.74-2.37.74-1,0-1.5-.6-1.5-1.81v-5.15h3.33v-1.88h-3.33v-2.17l-3.91,3.85v.21h1.83v4.67c0,.95.04,1.6.13,1.94.09.34.2.61.33.82.13.21.29.4.49.57.63.56,1.43.84,2.38.84s1.82-.22,2.62-.68v-1.95Z"/>
      <path class="cls-2" d="M137.59,121.54v-4.48c0-.89-.03-1.49-.07-1.8-.05-.32-.17-.63-.35-.95-.18-.32-.39-.57-.62-.76-.69-.6-1.6-.89-2.74-.89-1.52,0-2.68.48-3.49,1.43v2.28c1.08-1.18,2.18-1.76,3.32-1.76,1.27,0,1.9.63,1.9,1.9v.56l-2.67.92c-.88.31-1.56.72-2.03,1.24-.48.52-.72,1.12-.72,1.78,0,.73.24,1.34.73,1.83.49.48,1.1.73,1.83.73,1,0,1.94-.34,2.83-1.03.16.7.69,1.05,1.58,1.05.31,0,.61-.06.9-.17.29-.11.67-.32,1.14-.62v-1.27c-.53.37-.93.56-1.18.56s-.37-.18-.37-.54ZM135.55,121.31c-.56.54-1.18.81-1.84.81-.44,0-.8-.14-1.08-.41-.28-.27-.42-.63-.42-1.06s.15-.78.44-1.07c.29-.29.8-.57,1.51-.85l1.4-.54v3.12Z"/>
    </g>
  </g>
  <path class="cls-1" d="M86.6,122.89h7.71v-24.4h-7.71v24.4ZM88.81,102.96l1.64-2.52,1.64,2.52c.52.77.51,1.58,0,2.42l-1.64,2.64-1.64-2.64c-.51-.84-.52-1.64,0-2.42Z"/>
</svg>